<?xml version="1.0" standalone="no"?><!DOCTYPE svg PUBLIC "-//W3C//DTD SVG 1.1//EN" "http://www.w3.org/Graphics/SVG/1.1/DTD/svg11.dtd"><svg t="1581256566974" class="icon" viewBox="0 0 1024 1024" version="1.1" xmlns="http://www.w3.org/2000/svg" p-id="5192" data-spm-anchor-id="a313x.7781069.0.i18" xmlns:xlink="http://www.w3.org/1999/xlink" width="200" height="200"><defs><style type="text/css"></style></defs><path d="M967.466667 0H56.533333C25.301333 0 0 25.301333 0 56.533333v910.933334C0 998.741333 25.301333 1024 56.533333 1024h490.410667v-396.544H413.482667v-154.538667h133.461333V358.954667c0-132.266667 80.768-204.288 198.784-204.288 56.490667 0 105.088 4.181333 119.253333 6.101333v138.24h-81.834666c-64.170667 0-76.586667 30.506667-76.586667 75.264v98.645333h153.002667l-19.925334 154.538667h-133.12V1024h260.992c31.189333 0 56.490667-25.301333 56.490667-56.533333V56.533333C1024 25.301333 998.698667 0 967.466667 0z" p-id="5193" data-spm-anchor-id="a313x.7781069.0.i17" class="selected" fill="#2a2b2f"></path></svg>