<?xml version="1.0" standalone="no"?><!DOCTYPE svg PUBLIC "-//W3C//DTD SVG 1.1//EN" "http://www.w3.org/Graphics/SVG/1.1/DTD/svg11.dtd"><svg t="1581256612274" class="icon" viewBox="0 0 1024 1024" version="1.1" xmlns="http://www.w3.org/2000/svg" p-id="5998" data-spm-anchor-id="a313x.7781069.0.i22" xmlns:xlink="http://www.w3.org/1999/xlink" width="200" height="200"><defs><style type="text/css"></style></defs><path d="M470.9888 616.15104c-4.52608-0.55808-16.13312 0-34.7904 1.71008-18.38592 2.60096-37.21728 6.78912-56.46848 12.5696-4.51584 1.75104-10.84928 4.352-19.072 7.82848-8.20736 3.75808-16.5376 9.088-25.05216 16.03072-8.20736 7.20896-15.1296 16.1792-20.78208 26.88-6.50752 11.27936-9.72288 24.8576-9.72288 40.73984 0 31.232 14.09536 56.92928 42.37312 77.16864 26.9056 20.22912 63.65696 30.62784 110.34112 31.22176 41.88672-0.5888 73.84576-9.85088 95.88224-27.77088 21.51424-17.6384 32.27648-40.30976 32.27648-68.06016 0-22.55872-7.35744-42.1888-22.04672-58.94144-15.5648-15.872-39.88992-35.38944-73.00096-58.53184-5.67296-0.58368-12.3136-0.8448-19.93728-0.8448zM476.95872 236.48768c-14.01344-10.09664-30.11072-15.48288-48.3072-16.06656-24.08448 0.58368-44.06784 10.28096-60.05248 29.10208-13.47072 19.70688-19.90656 41.7024-19.29728 66.0224 0 32.11776 9.38496 65.536 28.19072 100.3008 9.1136 16.19968 20.82816 29.94688 35.26656 41.22112 14.37696 11.3408 30.83264 16.97792 49.36704 16.97792 23.37792-0.88576 42.87488-9.30304 58.43456-25.22112 7.54688-11.27424 12.37504-22.85568 14.52032-34.75456 1.29536-11.86816 1.95584-21.8368 1.95584-29.94688 0-35.03104-8.97024-70.37952-26.87488-105.96352-8.43264-17.05472-19.49184-30.98112-33.2032-41.67168z" p-id="5999" data-spm-anchor-id="a313x.7781069.0.i26" class="selected" fill="#808080"></path><path d="M865.68448 3.8912H158.30528C73.02656 3.8912 3.88096 73.02144 3.88096 158.31552v707.36384c0 85.28896 69.1456 154.42944 154.42432 154.42944h707.3792c85.2736 0 154.43456-69.14048 154.43456-154.42944V158.31552c0-85.28896-69.16096-154.42432-154.43456-154.42432z m-295.1936 234.30144c6.70208 6.93248 13.25056 15.49824 19.65568 25.57952 6.13888 9.54368 11.59168 20.77696 16.35328 33.81248 3.90656 12.98432 5.85216 28.16 5.85216 45.49632-0.50688 31.78496-7.54688 57.19552-21.0688 76.27776a233.17504 233.17504 0 0 1-21.02272 25.56928 897.7408 897.7408 0 0 1-26.17344 23.84896 121.05728 121.05728 0 0 0-14.68928 18.63168c-5.27872 7.22432-7.93088 15.57504-7.93088 25.11872 0 9.29792 2.7136 16.91136 8.1408 22.9888a178.04288 178.04288 0 0 0 13.44512 15.19104l30.14656 24.6784c18.7136 15.33952 35.1488 32.1792 49.25952 50.69824 13.29664 18.7904 20.20352 43.3408 20.8128 73.66144 0 43.0592-19.03104 81.17248-57.06752 114.44224-39.38304 34.41152-96.28672 52.14208-170.63424 53.30944-62.2336-0.56832-108.68736-13.85984-139.392-39.7824-30.94016-24.24832-46.44864-53.2224-46.44864-86.95808 0-16.43008 5.01248-34.76992 15.13984-54.95808 9.73824-20.16256 27.4432-37.89824 53.0944-53.19168 28.73856-16.38912 58.9824-27.41248 90.66496-32.88064 31.37536-4.59776 57.40544-7.19872 78.14656-7.77216a191.01184 191.01184 0 0 1-17.14176-27.008c-5.85216-9.28768-8.74496-20.51072-8.74496-33.54112 0-7.8592 1.08544-14.41792 3.30752-19.6096 1.96096-5.56032 3.78368-10.5984 5.44256-15.27296-10.0864 1.152-19.64032 1.74592-28.52864 1.74592-47.32416-0.59904-83.35872-15.48288-108.17536-44.65152-25.97376-27.18208-38.95808-58.81344-38.95808-94.91456 0-43.64288 18.38592-83.2 55.18336-118.7584 25.23648-20.7616 51.49696-34.3296 78.69952-40.73472 26.97216-5.4784 52.23424-8.23296 75.79136-8.23296h177.67424l-54.86592 32.04096h-54.78912c5.59104 3.49184 11.85792 8.51968 18.82112 15.17568z m331.53536 95.02208H808.8064v93.20448h-45.16352V333.21472h-93.21984V288.0512h93.21984V194.80064h45.16352v93.24544h93.21984v45.16864z" p-id="6000" data-spm-anchor-id="a313x.7781069.0.i23" class="selected" fill="#808080"></path></svg>