<?xml version="1.0" standalone="no"?><!DOCTYPE svg PUBLIC "-//W3C//DTD SVG 1.1//EN" "http://www.w3.org/Graphics/SVG/1.1/DTD/svg11.dtd"><svg t="1581256776151" class="icon" viewBox="0 0 1024 1024" version="1.1" xmlns="http://www.w3.org/2000/svg" p-id="7634" data-spm-anchor-id="a313x.7781069.0.i31" xmlns:xlink="http://www.w3.org/1999/xlink" width="200" height="200"><defs><style type="text/css"></style></defs><path d="M832.28 0q78.68 0 135.2 56.52 56.52 56.52 56.52 135.2v640.56q0 78.68-56.52 135.2-56.52 56.52-135.2 56.52H349.09q56.52-80.9 72.04-139.64 5.54-23.27 34.35-139.63 14.41 25.49 49.87 44.33 34.36 18.84 74.25 18.84 120.8 0 197.27-98.64 76.46-97.52 76.46-248.24 0-56.52-23.27-108.6-23.27-52.09-64.28-93.1-41-39.89-101.95-64.27-60.96-24.38-130.77-24.38-69.82 0-129.67 18.84-60.95 18.84-101.95 50.97-42.12 32.14-72.04 73.15-29.92 41-44.33 85.33-14.4 44.33-14.4 88.66 0 67.6 26.59 119.69 26.6 52.08 77.58 73.14 8.87 3.32 15.51 0 6.65-3.32 9.98-12.19 6.65-29.92 9.97-41 3.33-15.52-7.75-27.71-33.25-41-33.25-99.74 0-100.85 69.82-171.78 68.71-70.92 179.53-70.92 99.74 0 155.15 54.3 55.41 54.3 55.41 139.64 0 111.93-44.33 190.61-45.43 78.69-116.36 78.69-39.9 0-64.28-28.82-24.38-28.81-15.51-68.71 5.54-23.27 17.73-62.06 12.19-38.79 19.95-67.6 6.65-28.81 6.65-49.87 0-32.14-16.63-54.3-18.84-22.17-50.98-22.17-41 0-68.71 37.68-28.81 37.68-28.81 93.09 0 48.76 16.62 80.9l-65.38 275.95q-16.62 66.5-5.54 169.56H191.72q-78.68 0-135.2-56.52Q0 910.96 0 832.28V191.72q0-78.68 56.52-135.2Q113.04 0 191.72 0h640.56z" p-id="7635"></path></svg>