<?xml version="1.0" standalone="no"?><!DOCTYPE svg PUBLIC "-//W3C//DTD SVG 1.1//EN" "http://www.w3.org/Graphics/SVG/1.1/DTD/svg11.dtd"><svg t="1581256382826" class="icon" viewBox="0 0 1024 1024" version="1.1" xmlns="http://www.w3.org/2000/svg" p-id="3793" xmlns:xlink="http://www.w3.org/1999/xlink" width="200" height="200"><defs><style type="text/css"></style></defs><path d="M930.909091 1024H93.090909c-51.2 0-93.090909-41.890909-93.090909-93.090909V93.090909c0-51.2 41.890909-93.090909 93.090909-93.090909h837.818182c51.2 0 93.090909 41.890909 93.090909 93.090909v837.818182c0 51.2-41.890909 93.090909-93.090909 93.090909z" fill="#2a2b2f" p-id="3794" data-spm-anchor-id="a313x.7781069.0.i5" class=""></path><path d="M407.272727 637.672727c-46.545455-2.327273-88.436364-32.581818-102.4-79.127272 16.290909 2.327273 32.581818 2.327273 46.545455-2.327273h2.327273c-30.254545-6.981818-55.854545-25.6-72.145455-51.2-11.636364-18.618182-16.290909-39.563636-16.290909-60.509091 13.963636 9.309091 32.581818 13.963636 48.872727 13.963636-46.545455-34.909091-62.836364-100.072727-32.581818-151.272727 55.854545 69.818182 137.309091 111.709091 228.072727 118.690909 0-4.654545-2.327273-6.981818-2.327272-11.636364-4.654545-25.6 2.327273-51.2 16.290909-74.472727 16.290909-27.927273 46.545455-48.872727 81.454545-51.2 32.581818-4.654545 67.490909 6.981818 90.763636 32.581818 2.327273 2.327273 4.654545 2.327273 4.654546 2.327273 23.272727-4.654545 44.218182-13.963636 62.836364-25.6h2.327272c-6.981818 25.6-25.6 46.545455-46.545454 60.509091 20.945455-2.327273 41.890909-6.981818 60.509091-16.290909-4.654545 4.654545-9.309091 11.636364-11.636364 16.290909-11.636364 13.963636-25.6 27.927273-39.563636 39.563636l-2.327273 2.327273c0 16.290909 0 32.581818-2.327273 51.2-4.654545 34.909091-13.963636 69.818182-27.927273 100.072727-13.963636 32.581818-34.909091 62.836364-60.50909 88.436364-39.563636 44.218182-93.090909 74.472727-151.272728 86.109091-20.945455 4.654545-39.563636 6.981818-60.509091 6.981818-62.836364 2.327273-123.345455-13.963636-176.872727-48.872727l-2.327273-2.327273c37.236364 4.654545 74.472727 0 109.381819-16.290909 18.618182-4.654545 37.236364-13.963636 53.527272-27.927273z m0 0" fill="#808080" p-id="3795" data-spm-anchor-id="a313x.7781069.0.i4" class="selected"></path></svg>