<?xml version="1.0" standalone="no"?><!DOCTYPE svg PUBLIC "-//W3C//DTD SVG 1.1//EN" "http://www.w3.org/Graphics/SVG/1.1/DTD/svg11.dtd"><svg t="1580905367531" class="icon" viewBox="0 0 1024 1024" version="1.1" xmlns="http://www.w3.org/2000/svg" p-id="6942" xmlns:xlink="http://www.w3.org/1999/xlink" width="200" height="200"><defs><style type="text/css"></style></defs><path d="M528.547885 456.910311c-63.457264 0-114.885564 51.4283-114.885564 114.885564 0 63.457264 51.4283 114.888634 114.885564 114.888634s114.892727-51.43137 114.892727-114.888634C643.440611 508.33861 592.005149 456.910311 528.547885 456.910311z" p-id="6943"></path><path d="M834.918597 284.577361l-130.10622 0-2.594081 0c1.223874-5.807263 1.877767-11.824303 1.877767-17.995863l0-0.246617c0-47.969525-38.887682-86.857207-86.857207-86.857207l-210.024387 0c-47.970548 0-86.85823 38.887682-86.85823 86.857207l0 0.246617c0 6.17156 0.653893 12.1886 1.877767 17.995863l-100.056833 0c-42.296315 0-76.592422 32.148188-76.592422 71.805396l0 430.830329c0 39.651069 34.296107 71.802326 76.592422 71.802326l612.741425 0c42.303478 0 76.596516-32.151257 76.596516-71.802326l0-430.830329C911.515113 316.724525 877.222075 284.577361 834.918597 284.577361zM528.547885 763.274884c-105.753579 0-191.477986-85.721337-191.477986-191.477986 0-105.753579 85.724407-191.474916 191.477986-191.474916 105.760742 0 191.485149 85.721337 191.485149 191.474916C720.033034 677.553547 634.308627 763.274884 528.547885 763.274884z" p-id="6944"></path></svg>