<?xml version="1.0" standalone="no"?><!DOCTYPE svg PUBLIC "-//W3C//DTD SVG 1.1//EN" "http://www.w3.org/Graphics/SVG/1.1/DTD/svg11.dtd"><svg t="1581047654127" class="icon" viewBox="0 0 1024 1024" version="1.1" xmlns="http://www.w3.org/2000/svg" p-id="5161" width="200" height="200" xmlns:xlink="http://www.w3.org/1999/xlink"><defs><style type="text/css"></style></defs><path d="M512 512m-486.4 0a486.4 486.4 0 1 0 972.8 0 486.4 486.4 0 1 0-972.8 0Z" fill="#2c2c2c" p-id="5162" data-spm-anchor-id="a313x.7781069.0.i6" class="selected"></path><path d="M646.144 414.208h-45.568a76.8 76.8 0 0 0-83.456-68.608 82.176 82.176 0 0 0-74.24 46.848 212.48 212.48 0 0 0-25.6 112.64v14.592h2.304a115.968 115.968 0 0 1 105.984-65.792 122.624 122.624 0 0 1 92.928 37.12 134.4 134.4 0 0 1 34.816 95.744A135.936 135.936 0 0 1 614.4 685.312a132.096 132.096 0 0 1-97.536 39.424 125.44 125.44 0 0 1-110.336-54.528 250.88 250.88 0 0 1-34.816-143.616A289.28 289.28 0 0 1 409.6 369.92 121.856 121.856 0 0 1 517.632 307.2c74.496 0 117.248 35.072 128.512 107.008z m-196.096 104.704a93.952 93.952 0 0 0-25.6 68.608 97.024 97.024 0 0 0 25.6 69.376 84.48 84.48 0 0 0 67.072 28.672 86.784 86.784 0 0 0 65.792-27.648 103.936 103.936 0 0 0 25.6-71.424 93.952 93.952 0 0 0-25.6-68.096 86.272 86.272 0 0 0-66.56-25.6 87.808 87.808 0 0 0-66.304 26.368z" fill="#d81e06" p-id="5163"></path></svg>